<svg xmlns="http://www.w3.org/2000/svg" version="1.1" xmlns:xlink="http://www.w3.org/1999/xlink" xmlns:svgjs="http://svgjs.dev/svgjs" width="1600" height="800" preserveAspectRatio="none" viewBox="0 0 1600 800"><g mask="url(&quot;#SvgjsMask2656&quot;)" fill="none"><rect width="1600" height="800" x="0" y="0" fill="rgba(15, 16, 19, 1)"></rect><use xlink:href="#SvgjsG2664" transform="translate(0, 0)" fill="rgba(255, 255, 255, 0.2)"></use><use xlink:href="#SvgjsG2664" transform="translate(1088, 0)" fill="rgba(255, 255, 255, 0.2)"></use></g><defs><mask id="SvgjsMask2656"><rect width="1600" height="800" fill="#ffffff"></rect></mask><g id="SvgjsG2663"><path d="M2.87 6.26C5.48 4.23 14.07 3.36 14.07 3.36s-2.92 8.12-5.53 10.16c-1.77 1.38-4.69 1.75-6.59-0.69-1.91-2.44-0.84-5.18 0.92-6.57z" fill-rule="evenodd"></path></g><g id="SvgjsG2661"><path d="M11.33 14.58c0.18 0.23 0.54 0.3 0.79 0.15 0 0 0.36-0.21 0.74-0.51s0.67-0.6 0.68-0.59c0.2-0.21 0.22-0.58 0.04-0.81l-0.94-1.2c-0.18-0.23-0.22-0.59-0.09-0.8s0.65-0.74 0.94-0.7l1.51 0.18c0.29 0.04 0.58-0.17 0.65-0.46l0.22-1.78c0.01-0.3-0.22-0.57-0.52-0.6l-1.51-0.18c-0.29-0.04-0.57-0.26-0.62-0.5s-0.07-0.99 0.16-1.17L14.58 4.68c0.23-0.18 0.3-0.54 0.16-0.8 0 0-0.21-0.36-0.51-0.74s-0.6-0.67-0.6-0.68c-0.21-0.21-0.58-0.23-0.81-0.04l-1.2 0.94c-0.23 0.18-0.59 0.22-0.8 0.09s-0.74-0.65-0.7-0.94l0.18-1.51C10.34 0.7 10.13 0.41 9.84 0.35l-1.78-0.22c-0.3-0.01-0.57 0.22-0.6 0.52l-0.18 1.51c-0.04 0.29-0.26 0.57-0.5 0.62s-0.99 0.07-1.17-0.16L4.67 1.42c-0.18-0.23-0.54-0.3-0.79-0.15 0 0-0.36 0.21-0.74 0.5s-0.67 0.6-0.68 0.6c-0.21 0.21-0.23 0.58-0.04 0.81l0.94 1.2c0.18 0.23 0.22 0.59 0.09 0.8-0.13 0.2-0.65 0.74-0.94 0.7l-1.51-0.18C0.7 5.66 0.41 5.87 0.35 6.16l-0.22 1.78c-0.01 0.3 0.22 0.57 0.52 0.6l1.51 0.18c0.29 0.04 0.57 0.26 0.62 0.5s0.07 0.99-0.16 1.17l-1.2 0.94c-0.23 0.18-0.3 0.54-0.15 0.79 0 0 0.21 0.36 0.51 0.74s0.6 0.67 0.59 0.68c0.21 0.21 0.58 0.22 0.81 0.04l1.2-0.94c0.23-0.18 0.59-0.22 0.8-0.09 0.2 0.13 0.74 0.65 0.7 0.94l-0.18 1.52c-0.04 0.29 0.17 0.58 0.46 0.64l1.78 0.22c0.3 0.01 0.57-0.22 0.6-0.52l0.18-1.51c0.04-0.29 0.26-0.57 0.5-0.62 0.24-0.05 0.99-0.07 1.17 0.16l0.94 1.2zM5.72 9.78c-0.98-1.26-0.76-3.07 0.5-4.06 1.26-0.98 3.08-0.76 4.06 0.5S11.04 9.3 9.78 10.28 6.7 11.04 5.72 9.78z"></path></g><g id="SvgjsG2658"><path d="M15.88 10.57L7.41-0.27l1.8-1.07 8.14 10.43z"></path><path d="M14.59 5.7L11.82 2.16l1.03-0.29 2.28 2.91z m-1.44 2.57L5.38 14.33l-0.59-0.76L12.55 7.51l-1.19-1.53L3.6 12.05l-0.59-0.76L10.77 5.22 9.5 3.6 1.73 9.66l-0.59-0.76L8.9 2.84 7.37 0.88l-8.6 7.56 6.57 8.4 9.5-6.4z"></path></g><g id="SvgjsG2657"><path d="M8.3 17.89L9.04 11.88a6.3 6.3 0 1 0-5.71-2.38 6.26 6.26 0 0 0 2.72 2.01l-0.74 6.02L8.3 17.89zM5.89 2.55a3.91 3.91 0 0 1 5.47 0.67 3.91 3.91 0 0 1-0.67 5.48 3.9 3.9 0 0 1-4.8-6.15z"></path></g><g id="SvgjsG2660"><path d="M3.97 5.48c1.21 1.54 0.93 3.77-0.61 4.98l-1.92 1.46 2.57 3.29 10.72-3.59 2.85-2.2-7.8-9.99-6.54 5.11 0.73 0.94z" fill-rule="evenodd"></path><path d="M-0.5 5.52c1.16-0.91 2.85-0.7 3.76 0.46 0.91 1.16 0.7 2.85-0.46 3.76-1.16 0.91-2.85 0.7-3.76-0.46C-1.87 8.11-1.66 6.43-0.5 5.52z m0.73 2.83a1.16 1.16 0 1 0 1.84-1.43 1.16 1.16 0 0 0-1.84 1.42zM10.81-1.39l7.85 10.04-0.64 0.5-7.85-10.04z" fill-rule="evenodd"></path></g><g id="SvgjsG2659"><path d="M1.69 12.92l0 0c-1.31-1.68-1.89-3.78-1.63-5.9C0.32 4.9 1.39 3.01 3.08 1.69 4.76 0.38 6.85-0.2 8.97 0.05 11.09 0.32 12.98 1.38 14.3 3.07l0 0C15.62 4.76 16.2 6.85 15.94 8.97c-0.26 2.12-1.33 4.01-3.01 5.33-1.69 1.32-3.78 1.9-5.91 1.64-2.12-0.26-4.01-1.33-5.33-3.02z m11.16-8.72c-1.01-1.3-2.47-2.12-4.1-2.32-1.63-0.2-3.24 0.25-4.54 1.26-1.3 1.01-2.13 2.47-2.32 4.11-0.2 1.63 0.25 3.25 1.25 4.54 2.09 2.68 5.98 3.15 8.66 1.06 2.67-2.09 3.15-5.97 1.06-8.64l-0.01-0.01z"></path><path d="M9.1 8.02L10.51 6.91c0.29 0.43 0.13 1.05-0.24 1.41l1.04 1.34c1.37-1.07 1.12-2.88 0.5-3.78l0.93-0.73L11.74 3.88l-0.92 0.72c-0.3-0.37-2.1-1.69-3.63-0.49-1.37 1.06-0.79 2.58-0.25 3.52l-1.54 1.2c-0.31-0.75 0.08-1.24 0.4-1.63l-1.06-1.35c-1.47 1.29-1.13 3.19-0.66 4.01l-0.95 0.74 1.01 1.29 0.93-0.73c0.85 0.98 2.68 1.5 3.89 0.56 1.38-1.08 0.84-2.59 0.14-3.7zM8.33 6.56c-0.7-0.92 0.29-1.71 1.17-0.92l-1.17 0.92z m-1.92 3.58L7.74 9.1c0.85 1.15-0.18 2.15-1.33 1.04z"></path></g><g id="SvgjsG2662"><path d="M14.36 3.12c-2.03-2.6-5.79-3.07-8.4-1.03-4.4 3.44-4.24 10.9-4.24 10.9s7.2 1.96 11.61-1.48c2.6-2.03 3.07-5.79 1.03-8.39z m-6.8 5.31c-0.9-1.15-0.69-2.81 0.46-3.71S10.83 4.02 11.73 5.17s0.69 2.81-0.46 3.71S8.46 9.58 7.56 8.43z"></path></g><g id="SvgjsG2664"><use xlink:href="#SvgjsG2657" transform="translate(0, 0) scale(1.7)" fill="rgba(255, 255, 255, 0.2)"></use><use xlink:href="#SvgjsG2658" transform="translate(0, 108.8) scale(1.7)" fill="rgba(255, 255, 255, 0.2)"></use><use xlink:href="#SvgjsG2659" transform="translate(0, 217.6) scale(1.7)" fill="rgba(255, 255, 255, 0.2)"></use><use xlink:href="#SvgjsG2660" transform="translate(0, 326.4) scale(1.7)" fill="rgba(255, 255, 255, 0.2)"></use><use xlink:href="#SvgjsG2659" transform="translate(0, 435.2) scale(1.7)" fill="rgba(255, 255, 255, 0.2)"></use><use xlink:href="#SvgjsG2657" transform="translate(0, 544) scale(1.7)" fill="rgba(255, 255, 255, 0.2)"></use><use xlink:href="#SvgjsG2658" transform="translate(0, 652.8) scale(1.7)" fill="rgba(255, 255, 255, 0.2)"></use><use xlink:href="#SvgjsG2661" transform="translate(0, 761.6) scale(1.7)" fill="rgba(255, 255, 255, 0.2)"></use><use xlink:href="#SvgjsG2659" transform="translate(108.8, 0) scale(1.7)" fill="rgba(255, 255, 255, 0.2)"></use><use xlink:href="#SvgjsG2661" transform="translate(108.8, 108.8) scale(1.7)" fill="rgba(255, 255, 255, 0.2)"></use><use xlink:href="#SvgjsG2662" transform="translate(108.8, 217.6) scale(1.7)" fill="rgba(255, 255, 255, 0.2)"></use><use xlink:href="#SvgjsG2663" transform="translate(108.8, 326.4) scale(1.7)" fill="rgba(255, 255, 255, 0.2)"></use><use xlink:href="#SvgjsG2659" transform="translate(108.8, 435.2) scale(1.7)" fill="rgba(255, 255, 255, 0.2)"></use><use xlink:href="#SvgjsG2660" transform="translate(108.8, 544) scale(1.7)" fill="rgba(255, 255, 255, 0.2)"></use><use xlink:href="#SvgjsG2660" transform="translate(108.8, 652.8) scale(1.7)" fill="rgba(255, 255, 255, 0.2)"></use><use xlink:href="#SvgjsG2662" transform="translate(108.8, 761.6) scale(1.7)" fill="rgba(255, 255, 255, 0.2)"></use><use xlink:href="#SvgjsG2663" transform="translate(217.6, 0) scale(1.7)" fill="rgba(255, 255, 255, 0.2)"></use><use xlink:href="#SvgjsG2661" transform="translate(217.6, 108.8) scale(1.7)" fill="rgba(255, 255, 255, 0.2)"></use><use xlink:href="#SvgjsG2657" transform="translate(217.6, 217.6) scale(1.7)" fill="rgba(255, 255, 255, 0.2)"></use><use xlink:href="#SvgjsG2657" transform="translate(217.6, 326.4) scale(1.7)" fill="rgba(255, 255, 255, 0.2)"></use><use xlink:href="#SvgjsG2660" transform="translate(217.6, 435.2) scale(1.7)" fill="rgba(255, 255, 255, 0.2)"></use><use xlink:href="#SvgjsG2658" transform="translate(217.6, 544) scale(1.7)" fill="rgba(255, 255, 255, 0.2)"></use><use xlink:href="#SvgjsG2661" transform="translate(217.6, 652.8) scale(1.7)" fill="rgba(255, 255, 255, 0.2)"></use><use xlink:href="#SvgjsG2663" transform="translate(217.6, 761.6) scale(1.7)" fill="rgba(255, 255, 255, 0.2)"></use><use xlink:href="#SvgjsG2660" transform="translate(326.4, 0) scale(1.7)" fill="rgba(255, 255, 255, 0.2)"></use><use xlink:href="#SvgjsG2662" transform="translate(326.4, 108.8) scale(1.7)" fill="rgba(255, 255, 255, 0.2)"></use><use xlink:href="#SvgjsG2663" transform="translate(326.4, 217.6) scale(1.7)" fill="rgba(255, 255, 255, 0.2)"></use><use xlink:href="#SvgjsG2657" transform="translate(326.4, 326.4) scale(1.7)" fill="rgba(255, 255, 255, 0.2)"></use><use xlink:href="#SvgjsG2658" transform="translate(326.4, 435.2) scale(1.7)" fill="rgba(255, 255, 255, 0.2)"></use><use xlink:href="#SvgjsG2657" transform="translate(326.4, 544) scale(1.7)" fill="rgba(255, 255, 255, 0.2)"></use><use xlink:href="#SvgjsG2657" transform="translate(326.4, 652.8) scale(1.7)" fill="rgba(255, 255, 255, 0.2)"></use><use xlink:href="#SvgjsG2660" transform="translate(326.4, 761.6) scale(1.7)" fill="rgba(255, 255, 255, 0.2)"></use><use xlink:href="#SvgjsG2657" transform="translate(435.2, 0) scale(1.7)" fill="rgba(255, 255, 255, 0.2)"></use><use xlink:href="#SvgjsG2660" transform="translate(435.2, 108.8) scale(1.7)" fill="rgba(255, 255, 255, 0.2)"></use><use xlink:href="#SvgjsG2663" transform="translate(435.2, 217.6) scale(1.7)" fill="rgba(255, 255, 255, 0.2)"></use><use xlink:href="#SvgjsG2661" transform="translate(435.2, 326.4) scale(1.7)" fill="rgba(255, 255, 255, 0.2)"></use><use xlink:href="#SvgjsG2657" transform="translate(435.2, 435.2) scale(1.7)" fill="rgba(255, 255, 255, 0.2)"></use><use xlink:href="#SvgjsG2660" transform="translate(435.2, 544) scale(1.7)" fill="rgba(255, 255, 255, 0.2)"></use><use xlink:href="#SvgjsG2657" transform="translate(435.2, 652.8) scale(1.7)" fill="rgba(255, 255, 255, 0.2)"></use><use xlink:href="#SvgjsG2658" transform="translate(435.2, 761.6) scale(1.7)" fill="rgba(255, 255, 255, 0.2)"></use><use xlink:href="#SvgjsG2658" transform="translate(544, 0) scale(1.7)" fill="rgba(255, 255, 255, 0.2)"></use><use xlink:href="#SvgjsG2658" transform="translate(544, 108.8) scale(1.7)" fill="rgba(255, 255, 255, 0.2)"></use><use xlink:href="#SvgjsG2659" transform="translate(544, 217.6) scale(1.7)" fill="rgba(255, 255, 255, 0.2)"></use><use xlink:href="#SvgjsG2661" transform="translate(544, 326.4) scale(1.7)" fill="rgba(255, 255, 255, 0.2)"></use><use xlink:href="#SvgjsG2662" transform="translate(544, 435.2) scale(1.7)" fill="rgba(255, 255, 255, 0.2)"></use><use xlink:href="#SvgjsG2660" transform="translate(544, 544) scale(1.7)" fill="rgba(255, 255, 255, 0.2)"></use><use xlink:href="#SvgjsG2661" transform="translate(544, 652.8) scale(1.7)" fill="rgba(255, 255, 255, 0.2)"></use><use xlink:href="#SvgjsG2659" transform="translate(544, 761.6) scale(1.7)" fill="rgba(255, 255, 255, 0.2)"></use><use xlink:href="#SvgjsG2663" transform="translate(652.8, 0) scale(1.7)" fill="rgba(255, 255, 255, 0.2)"></use><use xlink:href="#SvgjsG2658" transform="translate(652.8, 108.8) scale(1.7)" fill="rgba(255, 255, 255, 0.2)"></use><use xlink:href="#SvgjsG2658" transform="translate(652.8, 217.6) scale(1.7)" fill="rgba(255, 255, 255, 0.2)"></use><use xlink:href="#SvgjsG2658" transform="translate(652.8, 326.4) scale(1.7)" fill="rgba(255, 255, 255, 0.2)"></use><use xlink:href="#SvgjsG2660" transform="translate(652.8, 435.2) scale(1.7)" fill="rgba(255, 255, 255, 0.2)"></use><use xlink:href="#SvgjsG2657" transform="translate(652.8, 544) scale(1.7)" fill="rgba(255, 255, 255, 0.2)"></use><use xlink:href="#SvgjsG2661" transform="translate(652.8, 652.8) scale(1.7)" fill="rgba(255, 255, 255, 0.2)"></use><use xlink:href="#SvgjsG2663" transform="translate(652.8, 761.6) scale(1.7)" fill="rgba(255, 255, 255, 0.2)"></use><use xlink:href="#SvgjsG2657" transform="translate(761.6, 0) scale(1.7)" fill="rgba(255, 255, 255, 0.2)"></use><use xlink:href="#SvgjsG2661" transform="translate(761.6, 108.8) scale(1.7)" fill="rgba(255, 255, 255, 0.2)"></use><use xlink:href="#SvgjsG2659" transform="translate(761.6, 217.6) scale(1.7)" fill="rgba(255, 255, 255, 0.2)"></use><use xlink:href="#SvgjsG2658" transform="translate(761.6, 326.4) scale(1.7)" fill="rgba(255, 255, 255, 0.2)"></use><use xlink:href="#SvgjsG2658" transform="translate(761.6, 435.2) scale(1.7)" fill="rgba(255, 255, 255, 0.2)"></use><use xlink:href="#SvgjsG2663" transform="translate(761.6, 544) scale(1.7)" fill="rgba(255, 255, 255, 0.2)"></use><use xlink:href="#SvgjsG2657" transform="translate(761.6, 652.8) scale(1.7)" fill="rgba(255, 255, 255, 0.2)"></use><use xlink:href="#SvgjsG2660" transform="translate(761.6, 761.6) scale(1.7)" fill="rgba(255, 255, 255, 0.2)"></use><use xlink:href="#SvgjsG2663" transform="translate(870.4, 0) scale(1.7)" fill="rgba(255, 255, 255, 0.2)"></use><use xlink:href="#SvgjsG2659" transform="translate(870.4, 108.8) scale(1.7)" fill="rgba(255, 255, 255, 0.2)"></use><use xlink:href="#SvgjsG2659" transform="translate(870.4, 217.6) scale(1.7)" fill="rgba(255, 255, 255, 0.2)"></use><use xlink:href="#SvgjsG2662" transform="translate(870.4, 326.4) scale(1.7)" fill="rgba(255, 255, 255, 0.2)"></use><use xlink:href="#SvgjsG2659" transform="translate(870.4, 435.2) scale(1.7)" fill="rgba(255, 255, 255, 0.2)"></use><use xlink:href="#SvgjsG2659" transform="translate(870.4, 544) scale(1.7)" fill="rgba(255, 255, 255, 0.2)"></use><use xlink:href="#SvgjsG2660" transform="translate(870.4, 652.8) scale(1.7)" fill="rgba(255, 255, 255, 0.2)"></use><use xlink:href="#SvgjsG2658" transform="translate(870.4, 761.6) scale(1.7)" fill="rgba(255, 255, 255, 0.2)"></use><use xlink:href="#SvgjsG2660" transform="translate(979.1999999999999, 0) scale(1.7)" fill="rgba(255, 255, 255, 0.2)"></use><use xlink:href="#SvgjsG2659" transform="translate(979.1999999999999, 108.8) scale(1.7)" fill="rgba(255, 255, 255, 0.2)"></use><use xlink:href="#SvgjsG2659" transform="translate(979.1999999999999, 217.6) scale(1.7)" fill="rgba(255, 255, 255, 0.2)"></use><use xlink:href="#SvgjsG2658" transform="translate(979.1999999999999, 326.4) scale(1.7)" fill="rgba(255, 255, 255, 0.2)"></use><use xlink:href="#SvgjsG2663" transform="translate(979.1999999999999, 435.2) scale(1.7)" fill="rgba(255, 255, 255, 0.2)"></use><use xlink:href="#SvgjsG2657" transform="translate(979.1999999999999, 544) scale(1.7)" fill="rgba(255, 255, 255, 0.2)"></use><use xlink:href="#SvgjsG2658" transform="translate(979.1999999999999, 652.8) scale(1.7)" fill="rgba(255, 255, 255, 0.2)"></use><use xlink:href="#SvgjsG2660" transform="translate(979.1999999999999, 761.6) scale(1.7)" fill="rgba(255, 255, 255, 0.2)"></use></g></defs></svg>